<svg width="376" height="281" viewBox="0 0 376 281" fill="none" xmlns="http://www.w3.org/2000/svg">
<path d="M247.647 25.9438C224.668 11.4004 197.572 2.60077 169.279 0.493584C140.986 -1.6136 112.57 3.05159 87.094 13.9862C61.6182 24.9208 40.0491 41.7101 24.7119 62.5441C9.37479 83.3781 0.851354 107.466 0.0605123 132.212C-0.730329 156.958 6.24143 181.423 20.2242 202.969C34.2069 224.515 54.6703 242.325 79.4081 254.48C104.146 266.634 132.22 272.671 160.604 271.941C188.987 271.21 216.604 263.74 240.476 250.334L236.894 245.485C214.034 258.322 187.588 265.476 160.408 266.176C133.229 266.875 106.345 261.094 82.6564 249.455C58.9676 237.816 39.3721 220.761 25.9824 200.129C12.5926 179.497 5.91657 156.069 6.67387 132.373C7.43117 108.677 15.5931 85.6098 30.2798 65.6594C44.9666 45.709 65.6209 29.6317 90.0162 19.1608C114.412 8.6899 141.623 4.22256 168.716 6.24038C195.809 8.2582 221.756 16.6846 243.761 30.6113L247.647 25.9438Z" fill="#C0E8FF"/>
<path d="M247.647 25.9438C224.668 11.4004 197.572 2.60077 169.279 0.493584C140.986 -1.6136 112.57 3.05159 87.094 13.9862C61.6182 24.9208 40.0491 41.7101 24.7119 62.5441C9.37479 83.3781 0.851354 107.466 0.0605123 132.212C-0.730329 156.958 6.24143 181.423 20.2242 202.969C34.2069 224.515 54.6703 242.325 79.4081 254.48C104.146 266.634 132.22 272.671 160.604 271.941C188.987 271.21 216.604 263.74 240.476 250.334L236.894 245.485C214.034 258.322 187.588 265.476 160.408 266.176C133.229 266.875 106.345 261.094 82.6564 249.455C58.9676 237.816 39.3721 220.761 25.9824 200.129C12.5926 179.497 5.91657 156.069 6.67387 132.373C7.43117 108.677 15.5931 85.6098 30.2798 65.6594C44.9666 45.709 65.6209 29.6317 90.0162 19.1608C114.412 8.6899 141.623 4.22256 168.716 6.24038C195.809 8.2582 221.756 16.6846 243.761 30.6113L247.647 25.9438Z" fill="url(#paint0_linear_11_2)"/>
<path d="M189.969 120.109V151.75H102.43V120.109H189.969ZM116.141 52.375V223H75.0078V52.375H116.141ZM217.625 52.375V223H176.609V52.375H217.625ZM313.367 150.461H269.422L269.188 123.508H304.812C311.219 123.508 316.336 122.805 320.164 121.398C323.992 119.914 326.766 117.766 328.484 114.953C330.281 112.141 331.18 108.625 331.18 104.406C331.18 99.5625 330.281 95.6562 328.484 92.6875C326.688 89.7188 323.836 87.5703 319.93 86.2422C316.102 84.8359 311.141 84.1328 305.047 84.1328H284.891V223H243.758V52.375H305.047C315.594 52.375 325.008 53.3516 333.289 55.3047C341.57 57.1797 348.602 60.0703 354.383 63.9766C360.242 67.8828 364.695 72.8047 367.742 78.7422C370.789 84.6016 372.312 91.5156 372.312 99.4844C372.312 106.438 370.828 112.961 367.859 119.055C364.891 125.148 359.93 130.109 352.977 133.938C346.102 137.688 336.688 139.641 324.734 139.797L313.367 150.461ZM311.727 223H259.461L273.523 191.359H311.727C317.352 191.359 321.844 190.5 325.203 188.781C328.641 186.984 331.102 184.641 332.586 181.75C334.148 178.781 334.93 175.5 334.93 171.906C334.93 167.531 334.188 163.742 332.703 160.539C331.297 157.336 329.031 154.875 325.906 153.156C322.781 151.359 318.602 150.461 313.367 150.461H278.797L279.031 123.508H320.398L330.008 134.289C341.414 133.82 350.438 135.422 357.078 139.094C363.797 142.766 368.602 147.609 371.492 153.625C374.383 159.641 375.828 165.93 375.828 172.492C375.828 183.664 373.406 193 368.562 200.5C363.797 208 356.648 213.625 347.117 217.375C337.586 221.125 325.789 223 311.727 223Z" fill="#C0E8FF"/>
<path d="M189.969 120.109V151.75H102.43V120.109H189.969ZM116.141 52.375V223H75.0078V52.375H116.141ZM217.625 52.375V223H176.609V52.375H217.625ZM313.367 150.461H269.422L269.188 123.508H304.812C311.219 123.508 316.336 122.805 320.164 121.398C323.992 119.914 326.766 117.766 328.484 114.953C330.281 112.141 331.18 108.625 331.18 104.406C331.18 99.5625 330.281 95.6562 328.484 92.6875C326.688 89.7188 323.836 87.5703 319.93 86.2422C316.102 84.8359 311.141 84.1328 305.047 84.1328H284.891V223H243.758V52.375H305.047C315.594 52.375 325.008 53.3516 333.289 55.3047C341.57 57.1797 348.602 60.0703 354.383 63.9766C360.242 67.8828 364.695 72.8047 367.742 78.7422C370.789 84.6016 372.312 91.5156 372.312 99.4844C372.312 106.438 370.828 112.961 367.859 119.055C364.891 125.148 359.93 130.109 352.977 133.938C346.102 137.688 336.688 139.641 324.734 139.797L313.367 150.461ZM311.727 223H259.461L273.523 191.359H311.727C317.352 191.359 321.844 190.5 325.203 188.781C328.641 186.984 331.102 184.641 332.586 181.75C334.148 178.781 334.93 175.5 334.93 171.906C334.93 167.531 334.188 163.742 332.703 160.539C331.297 157.336 329.031 154.875 325.906 153.156C322.781 151.359 318.602 150.461 313.367 150.461H278.797L279.031 123.508H320.398L330.008 134.289C341.414 133.82 350.438 135.422 357.078 139.094C363.797 142.766 368.602 147.609 371.492 153.625C374.383 159.641 375.828 165.93 375.828 172.492C375.828 183.664 373.406 193 368.562 200.5C363.797 208 356.648 213.625 347.117 217.375C337.586 221.125 325.789 223 311.727 223Z" fill="url(#paint1_linear_11_2)"/>
<defs>
<linearGradient id="paint0_linear_11_2" x1="156" y1="0" x2="156" y2="272" gradientUnits="userSpaceOnUse">
<stop stop-color="#FDADFF"/>
<stop offset="1" stop-color="#973B99" stop-opacity="0"/>
</linearGradient>
<linearGradient id="paint1_linear_11_2" x1="224" y1="0" x2="224" y2="281" gradientUnits="userSpaceOnUse">
<stop stop-color="#FDADFF"/>
<stop offset="1" stop-color="#973B99" stop-opacity="0"/>
</linearGradient>
</defs>
</svg>
